<svg xmlns="http://www.w3.org/2000/svg" viewBox="0 0 120 120" width="100%" height="100%">
  <defs>
    <linearGradient id="clean_bg" x1="0" y1="0" x2="0" y2="1">
      <stop offset="0%" stop-color="#f0fdfa"/>
      <stop offset="100%" stop-color="#ccfbf1"/>
    </linearGradient>
  </defs>
  <rect width="120" height="120" rx="16" fill="url(#clean_bg)"/>
  <!-- Broom angled -->
  <g transform="rotate(25 60 60)">
    <!-- Broom handle -->
    <rect x="58" y="12" width="5" height="60" rx="2" fill="#92400e"/>
    <!-- Broom binding -->
    <rect x="54" y="68" width="13" height="8" rx="2" fill="#ea580c"/>
    <!-- Broom bristles -->
    <polygon points="54,76 67,76 76,102 45,102" fill="#f59e0b"/>
    <line x1="52" y1="84" x2="50" y2="102" stroke="#d97706" stroke-width="1.5"/>
    <line x1="60" y1="84" x2="60" y2="102" stroke="#d97706" stroke-width="1.5"/>
    <line x1="68" y1="84" x2="70" y2="102" stroke="#d97706" stroke-width="1.5"/>
  </g>
  <!-- Sparkles / clean stars -->
  <path d="M28,42 L31,34 L34,42 L42,45 L34,48 L31,56 L28,48 L20,45 Z" fill="#0d9488"/>
  <path d="M82,24 L84,18 L86,24 L92,26 L86,28 L84,34 L82,28 L76,26 Z" fill="#0d9488"/>
  <path d="M88,86 L89.5,81 L91,86 L96,87.5 L91,89 L89.5,94 L88,89 L83,87.5 Z" fill="#0d9488"/>
</svg>
