<svg xmlns="http://www.w3.org/2000/svg" viewBox="0 0 120 120" width="100%" height="100%">
  <rect width="120" height="120" rx="24" fill="#f8fafc"/>
  <!-- Head & Neat Hair -->
  <circle cx="50" cy="34" r="14" fill="#fed7aa"/>
  <path d="M36 32 c0 -10 28 -10 28 0 c-4 -6 -12 -7 -20 -5 c-4 1 -6 3 -8 5 z" fill="#1e293b"/>
  <!-- Face features -->
  <circle cx="45" cy="34" r="1.5" fill="#1e293b"/>
  <circle cx="55" cy="34" r="1.5" fill="#1e293b"/>
  <path d="M47 40 q3 2 6 0" stroke="#1e293b" stroke-width="1.5" fill="none" stroke-linecap="round"/>
  <!-- Waiter Uniform / Vest & Bowtie -->
  <path d="M30 96 v-34 c0 -8 8 -12 16 -12 h8 c8 0 16 4 16 12 v34 z" fill="#1e293b"/>
  <path d="M44 50 l6 16 l6 -16 z" fill="#ffffff"/>
  <!-- Red Bowtie -->
  <polygon points="46,51 54,55 54,51 46,55" fill="#dc2626"/>
  <circle cx="50" cy="53" r="1.5" fill="#b91c1c"/>
  <!-- Arm holding serving platter / tray on the right -->
  <path d="M64 62 l16 10 l12 -12" fill="none" stroke="#fed7aa" stroke-width="4.5" stroke-linecap="round"/>
  <!-- Silver Tray -->
  <ellipse cx="90" cy="58" rx="20" ry="4" fill="#94a3b8"/>
  <ellipse cx="90" cy="57" rx="18" ry="3" fill="#cbd5e1"/>
  <!-- Covered Dish Cloche Dome -->
  <path d="M78 57 a12 12 0 0 1 24 0 z" fill="#e2e8f0" stroke="#94a3b8" stroke-width="1.5"/>
  <circle cx="90" cy="45" r="2.5" fill="#f59e0b"/>
</svg>
